<svg width="30" height="34" viewBox="0 0 30 34" fill="none" xmlns="http://www.w3.org/2000/svg">
<g clip-path="url(#clip0_373_231)">
<path d="M14.9445 10.1627C16.8792 10.1627 18.4476 8.38524 18.4476 6.19258C18.4476 3.99992 16.8792 2.22241 14.9445 2.22241C13.0098 2.22241 11.4414 3.99992 11.4414 6.19258C11.4414 8.38524 13.0098 10.1627 14.9445 10.1627Z" fill="#A31ACB"/>
<path d="M27.208 17.1152L23.9431 16.3434C22.8308 16.0793 21.7326 16.6571 21.152 17.6843C20.5881 17.3561 19.9817 17.073 19.3367 16.838V14.6377C19.338 12.9729 18.1355 11.6116 16.6717 11.6116H13.3334C11.8619 11.6116 10.6646 12.9729 10.6646 14.6377V16.8497C10.026 17.0802 9.4261 17.3633 8.85833 17.693C8.27772 16.6614 7.17823 16.0793 6.06459 16.3434L2.79707 17.1152C1.36287 17.4552 0.432035 19.0675 0.732006 20.6988L1.55212 25.1388C1.84953 26.7656 3.27341 27.8206 4.70892 27.4806L5.74271 27.2355C6.26023 28.1022 6.97608 28.8974 7.8927 29.5773C9.80193 30.9955 12.3241 31.7776 15.0006 31.7776C19.0959 31.7776 22.6235 29.9114 24.2482 27.2311L25.2987 27.4806C26.7329 27.8191 28.1568 26.7656 28.4542 25.1388L29.2756 20.6988C29.5743 19.0675 28.6434 17.4552 27.208 17.1152ZM14.9993 30.2616C12.5815 30.2616 10.3156 29.5715 8.6252 28.3093C8.04585 27.8804 7.56564 27.4033 7.18073 26.8926L7.9725 26.7043C9.40927 26.3659 10.3401 24.7536 10.0401 23.1252L9.305 19.1331C9.73371 18.872 10.1843 18.6429 10.6632 18.4474V19.1755C10.6632 20.8374 11.8631 22.1987 13.3321 22.1987H16.6704C18.1355 22.1987 19.3354 20.8359 19.3354 19.1755V18.4094C19.8233 18.6064 20.2816 18.8326 20.7065 19.0894L19.961 23.1267C19.6636 24.755 20.5931 26.3674 22.0299 26.7058L22.8294 26.8955C21.3386 28.8959 18.3891 30.2616 14.9993 30.2616Z" fill="#A31ACB"/>
<path d="M26.4972 15.3819C28.4319 15.3819 30.0003 13.6044 30.0003 11.4117C30.0003 9.21903 28.4319 7.44153 26.4972 7.44153C24.5625 7.44153 22.9941 9.21903 22.9941 11.4117C22.9941 13.6044 24.5625 15.3819 26.4972 15.3819Z" fill="#A31ACB"/>
<path d="M4.22184 15.2987C6.11693 14.8493 7.32714 12.7439 6.93573 10.5975C6.53662 8.45268 4.68272 7.07529 2.78633 7.5247C0.893808 7.97263 -0.321535 10.0766 0.0750046 12.223C0.470291 14.3707 2.32676 15.7467 4.22184 15.2987Z" fill="#A31ACB"/>
</g>
<defs>
<clipPath id="clip0_373_231">
<rect width="30" height="34" fill="white"/>
</clipPath>
</defs>
</svg>
