<svg width="30" height="34" viewBox="0 0 30 34" fill="none" xmlns="http://www.w3.org/2000/svg">
<path d="M22.3472 28.1375H7.63379C7.17431 28.1375 6.79883 28.5574 6.79883 29.0837C6.79883 29.6045 7.16942 30.03 7.63379 30.03H22.3522C22.8117 30.03 23.1872 29.61 23.1872 29.0837C23.1822 28.5574 22.8117 28.1375 22.3472 28.1375Z" fill="#6B75E6"/>
<path d="M22.3472 23.9938H7.63379C7.17431 23.9938 6.79883 24.4137 6.79883 24.9401C6.79883 25.4608 7.16942 25.8864 7.63379 25.8864H22.3522C22.8117 25.8864 23.1872 25.4663 23.1872 24.9401C23.1822 24.4138 22.8117 23.9938 22.3472 23.9938Z" fill="#6B75E6"/>
<path d="M14.9903 3.96997C13.014 3.96997 11.3984 5.79542 11.3984 8.04079C11.3984 10.2806 13.014 12.106 14.9903 12.106C16.9667 12.106 18.5822 10.2805 18.5822 8.03516C18.5822 5.78979 16.9667 3.96997 14.9903 3.96997ZM14.9903 10.2079C13.9379 10.2079 13.0733 9.22796 13.0733 8.03525C13.0733 6.84253 13.933 5.86264 14.9903 5.86264C16.0477 5.86264 16.9073 6.84253 16.9073 8.03525C16.9073 9.22788 16.0427 10.2079 14.9903 10.2079Z" fill="#6B75E6"/>
<path d="M19.7581 14.1499C16.7097 12.806 13.2808 12.806 10.2325 14.1499C9.23441 14.5922 8.56743 15.7177 8.56743 16.9552V20.7964C8.56246 21.3172 8.93802 21.7427 9.3975 21.7427H20.5882C21.0477 21.7427 21.4232 21.3228 21.4232 20.7964V16.9552C21.4232 15.7177 20.7562 14.5922 19.7581 14.1499ZM19.7581 19.8557H10.2325V16.9608C10.2325 16.5016 10.4746 16.0761 10.8352 15.9193C13.4983 14.749 16.4923 14.749 19.1554 15.9193C19.5161 16.0817 19.7582 16.4961 19.7582 16.9608V19.8557H19.7581Z" fill="#6B75E6"/>
<path d="M23.928 0H10.0496C9.40728 0 8.8045 0.279946 8.35 0.795143L4.35785 5.31949C3.90334 5.83469 3.65625 6.51775 3.65625 7.24568V31.2674C3.65625 32.7737 4.7383 33.9999 6.06728 33.9999H23.9329C25.262 33.9999 26.344 32.7736 26.344 31.2674V2.7325C26.3292 1.22632 25.2472 0 23.928 0ZM8.56239 3.22527V5.56583H6.49718L8.56239 3.22527ZM24.6642 10.1182H21.5614C21.1019 10.1182 20.7265 10.5382 20.7265 11.0645C20.7265 11.5853 21.097 12.0108 21.5614 12.0108H24.6642V13.6907H23.5278C23.0683 13.6907 22.6928 14.1106 22.6928 14.637C22.6928 15.1577 23.0634 15.5833 23.5278 15.5833H24.6642V31.273C24.6642 31.7377 24.3332 32.1129 23.928 32.1129H6.05253C5.64739 32.1129 5.31639 31.7377 5.31639 31.2786V7.45287H9.39742C9.8569 7.45287 10.2324 7.03295 10.2324 6.50658V1.88141H23.928C24.3332 1.88141 24.6642 2.25654 24.6642 2.7157V10.1182Z" fill="#6B75E6"/>
</svg>
