<svg width="30" height="34" viewBox="0 0 30 34" fill="none" xmlns="http://www.w3.org/2000/svg">
<path d="M15 16.472C16.2535 16.472 17.4557 15.9076 18.3421 14.9031C19.2284 13.8985 19.7264 12.536 19.7264 11.1154C19.7264 9.69473 19.2284 8.33226 18.3421 7.3277C17.4557 6.32314 16.2535 5.75879 15 5.75879C13.7465 5.75879 12.5443 6.32314 11.6579 7.3277C10.7716 8.33226 10.2736 9.69473 10.2736 11.1154C10.2736 12.536 10.7716 13.8985 11.6579 14.9031C12.5443 15.9076 13.7465 16.472 15 16.472ZM15 18.8254C8.71594 18.8254 4.6875 22.7556 4.6875 24.6692V28.2424H25.3125V24.6692C25.3125 22.355 21.4988 18.8254 15 18.8254Z" fill="#39B5E0"/>
</svg>
