<svg width="25" height="25" viewBox="0 0 25 25" fill="none" xmlns="http://www.w3.org/2000/svg">
<path d="M2.08332 5.4896L3.41666 4.16669L20.8333 21.5834L19.5104 22.9167L16.3021 19.7084C15.1042 20.1042 13.8333 20.3125 12.5 20.3125C7.29166 20.3125 2.84374 17.0729 1.04166 12.5C1.76041 10.6667 2.90624 9.0521 4.36457 7.77085L2.08332 5.4896ZM12.5 9.37502C13.3288 9.37502 14.1236 9.70426 14.7097 10.2903C15.2957 10.8764 15.625 11.6712 15.625 12.5C15.6255 12.8548 15.5656 13.207 15.4479 13.5417L11.4583 9.5521C11.793 9.43438 12.1452 9.37449 12.5 9.37502ZM12.5 4.68752C17.7083 4.68752 22.1562 7.9271 23.9583 12.5C23.1082 14.6596 21.6635 16.5341 19.7917 17.9063L18.3125 16.4167C19.753 15.4202 20.9148 14.072 21.6875 12.5C20.8454 10.7812 19.5379 9.33311 17.9138 8.32034C16.2897 7.30756 14.414 6.77073 12.5 6.77085C11.3646 6.77085 10.25 6.95835 9.20832 7.29169L7.60416 5.69794C9.10416 5.0521 10.7604 4.68752 12.5 4.68752ZM3.31249 12.5C4.15461 14.2188 5.46204 15.6669 7.08617 16.6797C8.71029 17.6925 10.586 18.2293 12.5 18.2292C13.2187 18.2292 13.9271 18.1563 14.5833 18.0104L12.2083 15.625C11.4835 15.5473 10.8071 15.2238 10.2916 14.7084C9.77616 14.1929 9.45268 13.5165 9.37499 12.7917L5.83332 9.2396C4.80207 10.125 3.93749 11.2292 3.31249 12.5Z" fill="black"/>
</svg>
