<svg width="11" height="12" viewBox="0 0 11 12" fill="none" xmlns="http://www.w3.org/2000/svg">
<path d="M9.22285 11.4942C8.74959 11.4942 8.34731 11.3286 8.01603 10.9973C7.68474 10.666 7.5191 10.2637 7.5191 9.79045C7.5191 9.72419 7.52383 9.65547 7.5333 9.58429C7.54276 9.51349 7.55696 9.4497 7.57589 9.39291L3.57208 7.06445C3.41117 7.20643 3.23133 7.31755 3.03256 7.39781C2.83379 7.47846 2.62555 7.51878 2.40785 7.51878C1.93459 7.51878 1.53231 7.35314 1.20103 7.02185C0.869744 6.69057 0.704102 6.28829 0.704102 5.81503C0.704102 5.34177 0.869744 4.93949 1.20103 4.60821C1.53231 4.27692 1.93459 4.11128 2.40785 4.11128C2.62555 4.11128 2.83379 4.15141 3.03256 4.23168C3.23133 4.31232 3.41117 4.42364 3.57208 4.56561L7.57589 2.23716C7.55696 2.18036 7.54276 2.11657 7.5333 2.04577C7.52383 1.97459 7.5191 1.90587 7.5191 1.83961C7.5191 1.36635 7.68474 0.964076 8.01603 0.632791C8.34731 0.301507 8.74959 0.135864 9.22285 0.135864C9.69611 0.135864 10.0984 0.301507 10.4297 0.632791C10.761 0.964076 10.9266 1.36635 10.9266 1.83961C10.9266 2.31288 10.761 2.71515 10.4297 3.04644C10.0984 3.37772 9.69611 3.54336 9.22285 3.54336C9.00515 3.54336 8.79691 3.50304 8.59814 3.4224C8.39937 3.34213 8.21953 3.23101 8.05862 3.08903L4.05481 5.41749C4.07374 5.47428 4.08794 5.53808 4.0974 5.60888C4.10687 5.68006 4.1116 5.74877 4.1116 5.81503C4.1116 5.88129 4.10687 5.94982 4.0974 6.02062C4.08794 6.0918 4.07374 6.15578 4.05481 6.21257L8.05862 8.54103C8.21953 8.39905 8.39937 8.28774 8.59814 8.2071C8.79691 8.12683 9.00515 8.0867 9.22285 8.0867C9.69611 8.0867 10.0984 8.25234 10.4297 8.58362C10.761 8.91491 10.9266 9.31718 10.9266 9.79045C10.9266 10.2637 10.761 10.666 10.4297 10.9973C10.0984 11.3286 9.69611 11.4942 9.22285 11.4942ZM9.22285 2.40753C9.38376 2.40753 9.51855 2.3532 9.62721 2.24454C9.73625 2.1355 9.79077 2.00052 9.79077 1.83961C9.79077 1.6787 9.73625 1.54373 9.62721 1.43469C9.51855 1.32603 9.38376 1.2717 9.22285 1.2717C9.06194 1.2717 8.92716 1.32603 8.81849 1.43469C8.70945 1.54373 8.65493 1.6787 8.65493 1.83961C8.65493 2.00052 8.70945 2.1355 8.81849 2.24454C8.92716 2.3532 9.06194 2.40753 9.22285 2.40753ZM2.40785 6.38295C2.56876 6.38295 2.70374 6.32843 2.81278 6.21939C2.92144 6.11073 2.97577 5.97594 2.97577 5.81503C2.97577 5.65412 2.92144 5.51915 2.81278 5.41011C2.70374 5.30144 2.56876 5.24711 2.40785 5.24711C2.24694 5.24711 2.11197 5.30144 2.00293 5.41011C1.89427 5.51915 1.83993 5.65412 1.83993 5.81503C1.83993 5.97594 1.89427 6.11073 2.00293 6.21939C2.11197 6.32843 2.24694 6.38295 2.40785 6.38295ZM9.22285 10.3584C9.38376 10.3584 9.51855 10.3038 9.62721 10.1948C9.73625 10.0861 9.79077 9.95136 9.79077 9.79045C9.79077 9.62954 9.73625 9.49475 9.62721 9.38609C9.51855 9.27705 9.38376 9.22253 9.22285 9.22253C9.06194 9.22253 8.92716 9.27705 8.81849 9.38609C8.70945 9.49475 8.65493 9.62954 8.65493 9.79045C8.65493 9.95136 8.70945 10.0861 8.81849 10.1948C8.92716 10.3038 9.06194 10.3584 9.22285 10.3584Z" fill="white"/>
</svg>
