<svg width="5" height="22" viewBox="0 0 5 22" fill="none" xmlns="http://www.w3.org/2000/svg">
<path d="M2.67869 12.711C3.61968 12.711 4.38277 11.9449 4.38277 11.0001C4.38277 10.0553 3.61968 9.28918 2.67869 9.28918C1.7377 9.28918 0.974609 10.0553 0.974609 11.0001C0.974609 11.9449 1.7377 12.711 2.67869 12.711Z" fill="#A5A5A5" stroke="#A5A5A5" stroke-linecap="round" stroke-linejoin="round"/>
<path d="M2.67869 21C3.61968 21 4.38277 20.2338 4.38277 19.2891C4.38277 18.3443 3.61968 17.5781 2.67869 17.5781C1.7377 17.5781 0.974609 18.3443 0.974609 19.2891C0.974609 20.2338 1.7377 21 2.67869 21Z" fill="#A5A5A5" stroke="#A5A5A5" stroke-linecap="round" stroke-linejoin="round"/>
<path d="M2.67869 4.42186C3.61968 4.42186 4.38277 3.65584 4.38277 2.71093C4.38277 1.76602 3.61968 1 2.67869 1C1.7377 1 0.974609 1.76602 0.974609 2.71093C0.974609 3.65584 1.7377 4.42186 2.67869 4.42186Z" fill="#A5A5A5" stroke="#A5A5A5" stroke-linecap="round" stroke-linejoin="round"/>
</svg>
